<svg width="14" height="14" viewBox="0 0 14 14" fill="none" xmlns="http://www.w3.org/2000/svg">
<path d="M11.375 0H2.625C1.17578 0 0 1.17578 0 2.625V11.375C0 12.8242 1.17578 14 2.625 14H7.47396V8.57682H5.65104V6.46224H7.47396V4.90365C7.47396 3.09896 8.58594 2.11458 10.1992 2.11458C10.9648 2.11458 11.6302 2.16927 11.8216 2.19661V4.08333L10.7096 4.09245C9.82552 4.09245 9.66146 4.5026 9.66146 5.11328V6.46224H11.7487L11.4753 8.57682H9.66146V14H11.375C12.8242 14 14 12.8242 14 11.375V2.625C14 1.17578 12.8242 0 11.375 0Z" fill="#D728F4"/>
</svg>
