<svg width="14" height="14" viewBox="0 0 14 14" fill="none" xmlns="http://www.w3.org/2000/svg">
<path d="M2.16016 11.7214V5.39583H4.26562V11.7214H2.16016ZM4.40234 3.44531C4.40234 4.04688 3.94661 4.53906 3.20833 4.53906H3.19922C2.48828 4.53906 2.03255 4.04688 2.03255 3.44531C2.03255 2.82552 2.50651 2.35156 3.22656 2.35156C3.94661 2.35156 4.39323 2.82552 4.40234 3.44531ZM9.73438 11.7214V8.33984C9.73438 7.48307 9.43359 6.90885 8.67708 6.90885C8.09375 6.90885 7.7474 7.30078 7.59245 7.67448C7.53776 7.8112 7.52865 8.0026 7.52865 8.1849V11.7214H5.42318C5.45052 5.98828 5.42318 5.39583 5.42318 5.39583H7.52865V6.31641H7.51042C7.78385 5.87891 8.28516 5.25 9.41536 5.25C10.8008 5.25 11.8398 6.15234 11.8398 8.09375V11.7214H9.73438ZM14 2.625C14 1.17578 12.8242 0 11.375 0H2.625C1.17578 0 0 1.17578 0 2.625V11.375C0 12.8242 1.17578 14 2.625 14H11.375C12.8242 14 14 12.8242 14 11.375V2.625Z" fill="#97999B"/>
</svg>
