<svg width="14" height="11" viewBox="0 0 14 11" fill="none" xmlns="http://www.w3.org/2000/svg">
<path d="M14 1.30625C13.4848 1.52109 12.9251 1.67578 12.3477 1.73594C12.9429 1.39219 13.3959 0.850781 13.6091 0.20625C13.0584 0.524218 12.4365 0.75625 11.7881 0.876562C11.264 0.335156 10.5178 0 9.69162 0C8.10152 0 6.82234 1.24609 6.82234 2.77578C6.82234 2.99062 6.84898 3.20547 6.8934 3.41172C4.51269 3.29141 2.38959 2.19141 0.977157 0.507031C0.728426 0.919531 0.586294 1.39219 0.586294 1.90781C0.586294 2.87031 1.09264 3.72109 1.86548 4.21953C1.39467 4.20234 0.950508 4.07344 0.568528 3.86719C0.568528 3.87578 0.568528 3.89297 0.568528 3.90156C0.568528 5.25078 1.55457 6.36797 2.86929 6.62578C2.62944 6.68594 2.37183 6.72031 2.11421 6.72031C1.92767 6.72031 1.75 6.70312 1.57234 6.67734C1.93655 7.77734 2.99365 8.57656 4.25508 8.60234C3.26904 9.35 2.03426 9.78828 0.692893 9.78828C0.453046 9.78828 0.230964 9.77969 0 9.75391C1.2703 10.5445 2.78046 11 4.40609 11C9.68274 11 12.5698 6.77187 12.5698 3.10234C12.5698 2.98203 12.5698 2.86172 12.5609 2.74141C13.1206 2.34609 13.6091 1.85625 14 1.30625Z" fill="#D728F4"/>
</svg>
